<?xml version="1.0" encoding="utf-8"?>
<svg version="1.1" xmlns:xlink="http://www.w3.org/1999/xlink" width="10px" height="12px" xmlns="http://www.w3.org/2000/svg">
  <g transform="matrix(1 0 0 1 -332 -20 )">
    <path d="M 9.76430976430976 8.96969696969697  C 9.92143658810325 9.15824915824916  10 9.38720538720539  10 9.65656565656566  C 10 9.92592592592593  9.92143658810325 10.1548821548822  9.76430976430976 10.3434343434343  L 8.61952861952862 11.7171717171717  C 8.46240179573513 11.9057239057239  8.2716049382716 12  8.04713804713805 12  C 7.82267115600449 12  7.63187429854097 11.9057239057239  7.47474747474747 11.7171717171717  L 5 8.74747474747475  L 2.52525252525253 11.7171717171717  C 2.36812570145903 11.9057239057239  2.17732884399551 12  1.95286195286195 12  C 1.7283950617284 12  1.53759820426487 11.9057239057239  1.38047138047138 11.7171717171717  L 0.235690235690236 10.3434343434343  C 0.0785634118967453 10.1548821548822  0 9.92592592592593  0 9.65656565656566  C 0 9.38720538720539  0.0785634118967453 9.15824915824916  0.235690235690236 8.96969696969697  L 2.71043771043771 6  L 0.235690235690236 3.03030303030303  C 0.0785634118967453 2.84175084175084  0 2.61279461279461  0 2.34343434343434  C 0 2.07407407407407  0.0785634118967453 1.84511784511784  0.235690235690236 1.65656565656566  L 1.38047138047138 0.282828282828283  C 1.53759820426487 0.0942760942760938  1.7283950617284 0  1.95286195286195 0  C 2.17732884399551 0  2.36812570145903 0.0942760942760938  2.52525252525253 0.282828282828283  L 5 3.25252525252525  L 7.47474747474747 0.282828282828283  C 7.63187429854097 0.0942760942760938  7.82267115600449 0  8.04713804713805 0  C 8.2716049382716 0  8.46240179573513 0.0942760942760938  8.61952861952862 0.282828282828283  L 9.76430976430976 1.65656565656566  C 9.92143658810325 1.84511784511784  10 2.07407407407407  10 2.34343434343434  C 10 2.61279461279461  9.92143658810325 2.84175084175084  9.76430976430976 3.03030303030303  L 7.28956228956229 6  L 9.76430976430976 8.96969696969697  Z " fill-rule="nonzero" fill="#333333" stroke="none" transform="matrix(1 0 0 1 332 20 )" />
  </g>
</svg>