<?xml version="1.0" encoding="utf-8"?>
<svg version="1.1" xmlns:xlink="http://www.w3.org/1999/xlink" width="30px" height="30px" xmlns="http://www.w3.org/2000/svg">
  <g transform="matrix(1 0 0 1 -316 -158 )">
    <path d="M 0.782684824902724 6.37309941520468  C -0.183268482490272 6.81228070175438  -0.183268482490272 8.27543859649123  0.782684824902724 8.71461988304093  L 14.3784046692607 14.8941520467836  C 14.7752918287938 15.0748538011696  15.2241245136187 15.0748538011696  15.6210116731518 14.8941520467836  L 29.2167315175097 8.71461988304093  C 30.1826848249027 8.27543859649123  30.1826848249027 6.81286549707602  29.2167315175097 6.37368421052631  L 15.6215953307393 0.193567251461988  C 15.227024235158 0.0128681984729289  14.7735594224296 0.0128681984729289  14.3789883268482 0.193567251461988  L 0.782684824902724 6.37309941520468  Z M 29.2173151750973 16.2163742690058  C 30.1832684824903 15.7777777777778  30.1832684824903 14.3157894736842  29.2173151750973 13.8771929824561  L 25.8268482490272 12.3374269005848  L 16.3926070038911 16.6222222222222  C 15.9513618677043 16.8228070175439  15.4826848249027 16.9245614035088  15 16.9245614035088  C 14.5173151750973 16.9245614035088  14.0492217898833 16.8228070175439  13.6073929961089 16.6222222222222  L 4.17373540856031 12.3374269005848  L 0.782684824902724 13.8771929824561  C -0.183268482490272 14.3157894736842  -0.183268482490272 15.7777777777778  0.782684824902724 16.2163742690058  L 14.3784046692607 22.3912280701754  C 14.7752918287938 22.5713450292398  15.2241245136187 22.5713450292398  15.6210116731518 22.3912280701754  L 29.2173151750973 16.2163742690058  Z M 29.2173151750973 23.6900584795322  C 30.1832684824903 23.2514619883041  30.1832684824903 21.7894736842105  29.2173151750973 21.3508771929825  L 25.8396887159533 19.8169590643275  L 16.3926070038911 24.1076023391813  C 15.9513618677043 24.3081871345029  15.4826848249027 24.4099415204678  15 24.4099415204678  C 14.5173151750973 24.4099415204678  14.0492217898833 24.3081871345029  13.6073929961089 24.1076023391813  L 4.16089494163424 19.8169590643275  L 0.782684824902724 21.3508771929825  C -0.183268482490272 21.7894736842105  -0.183268482490272 23.2514619883041  0.782684824902724 23.6900584795322  L 14.3784046692607 29.8649122807017  C 14.7752918287938 30.0450292397661  15.2241245136187 30.0450292397661  15.6210116731518 29.8649122807017  L 29.2173151750973 23.6900584795322  Z " fill-rule="nonzero" fill="#00703c" stroke="none" transform="matrix(1 0 0 1 316 158 )" />
  </g>
</svg>