<?xml version="1.0" encoding="utf-8"?>
<svg version="1.1" xmlns:xlink="http://www.w3.org/1999/xlink" width="20px" height="20px" viewBox="259 211  20 20" xmlns="http://www.w3.org/2000/svg">
  <path d="M 269 211  C 274.6 211  279 215.4  279 221  C 279 226.6  274.6 231  269 231  C 263.4 231  259 226.6  259 221  C 259 215.4  263.4 211  269 211  Z " fill-rule="nonzero" fill="#ffffff" stroke="none" />
  <path d="M 269 211.5  C 274.32 211.5  278.5 215.68  278.5 221  C 278.5 226.32  274.32 230.5  269 230.5  C 263.68 230.5  259.5 226.32  259.5 221  C 259.5 215.68  263.68 211.5  269 211.5  Z " stroke-width="1" stroke="#8dc63f" fill="none" />
  <path d="M 269 226  C 266.2 226  264 223.8  264 221  C 264 218.2  266.2 216  269 216  C 271.8 216  274 218.2  274 221  C 274 223.8  271.8 226  269 226  " fill-rule="nonzero" fill="#8dc63f" stroke="none" />
</svg>