<?xml version="1.0" encoding="utf-8"?>
<svg version="1.1" xmlns:xlink="http://www.w3.org/1999/xlink" width="13px" height="15px" xmlns="http://www.w3.org/2000/svg">
  <g transform="matrix(1 0 0 1 -68 -18 )">
    <path d="M 7.97265625 9.19921875  C 8.65755208333333 8.40895432692308  9 7.45793269230769  9 6.34615384615385  C 9 5.234375  8.65755208333333 4.28335336538462  7.97265625 3.49308894230769  C 7.28776041666667 2.70282451923077  6.46354166666667 2.30769230769231  5.5 2.30769230769231  C 4.53645833333333 2.30769230769231  3.71223958333333 2.70282451923077  3.02734375 3.49308894230769  C 2.34244791666667 4.28335336538462  2 5.234375  2 6.34615384615385  C 2 7.45793269230769  2.34244791666667 8.40895432692308  3.02734375 9.19921875  C 3.71223958333333 9.98948317307692  4.53645833333333 10.3846153846154  5.5 10.3846153846154  C 6.46354166666667 10.3846153846154  7.28776041666667 9.98948317307692  7.97265625 9.19921875  Z M 12.7109375 13.0348557692308  C 12.9036458333333 13.2572115384615  13 13.5276442307692  13 13.8461538461538  C 13 14.1586538461538  12.9010416666667 14.4290865384615  12.703125 14.6574519230769  C 12.5052083333333 14.8858173076923  12.2708333333333 15  12 15  C 11.71875 15  11.484375 14.8858173076923  11.296875 14.6574519230769  L 8.6171875 11.5745192307692  C 7.68489583333333 12.3197115384615  6.64583333333333 12.6923076923077  5.5 12.6923076923077  C 4.75520833333333 12.6923076923077  4.04296875 12.5255408653846  3.36328125 12.1920072115385  C 2.68359375 11.8584735576923  2.09765625 11.4077524038462  1.60546875 10.83984375  C 1.11328125 10.2719350961538  0.72265625 9.59585336538462  0.43359375 8.81159855769231  C 0.14453125 8.02734375  0 7.20552884615384  0 6.34615384615385  C 0 5.48677884615384  0.14453125 4.66496394230769  0.43359375 3.88070913461538  C 0.72265625 3.09645432692308  1.11328125 2.42037259615385  1.60546875 1.85246394230769  C 2.09765625 1.28455528846154  2.68359375 0.833834134615384  3.36328125 0.500300480769231  C 4.04296875 0.166766826923077  4.75520833333333 0  5.5 0  C 6.24479166666667 0  6.95703125 0.166766826923077  7.63671875 0.500300480769231  C 8.31640625 0.833834134615384  8.90234375 1.28455528846154  9.39453125 1.85246394230769  C 9.88671875 2.42037259615385  10.27734375 3.09645432692308  10.56640625 3.88070913461538  C 10.85546875 4.66496394230769  11 5.48677884615384  11 6.34615384615385  C 11 7.66826923076923  10.6770833333333 8.8671875  10.03125 9.94290865384615  L 12.7109375 13.0348557692308  Z " fill-rule="nonzero" fill="#00703c" stroke="none" transform="matrix(1 0 0 1 68 18 )" />
  </g>
</svg>