<?xml version="1.0" encoding="utf-8"?>
<svg version="1.1" xmlns:xlink="http://www.w3.org/1999/xlink" width="34px" height="34px" xmlns="http://www.w3.org/2000/svg">
  <g transform="matrix(1 0 0 1 -310 -473 )">
    <path d="M 16.5721854304636 17.4278145695364  C 16.8573951434879 17.7130242825607  17 18.0507726269316  17 18.441059602649  L 17 28.5284768211921  C 17 28.9187637969095  16.8573951434879 29.2565121412804  16.5721854304636 29.5417218543046  C 16.2869757174393 29.8269315673289  15.9492273730684 29.9695364238411  15.558940397351 29.9695364238411  C 15.1686534216336 29.9695364238411  14.8309050772627 29.8269315673289  14.5456953642384 29.5417218543046  L 11.3033112582781 26.2993377483444  L 3.82781456953642 33.7748344370861  C 3.67770419426049 33.924944812362  3.50507726269316 34  3.30993377483444 34  C 3.11479028697572 34  2.94216335540839 33.924944812362  2.79205298013245 33.7748344370861  L 0.225165562913907 31.2079470198676  C 0.0750551876379692 31.0578366445916  0 30.8852097130243  0 30.6900662251656  C 0 30.4949227373068  0.0750551876379692 30.3222958057395  0.225165562913907 30.1721854304636  L 7.70066225165563 22.6966887417219  L 4.45827814569536 19.4543046357616  C 4.17306843267108 19.1690949227373  4.03046357615894 18.8313465783664  4.03046357615894 18.441059602649  C 4.03046357615894 18.0507726269316  4.17306843267108 17.7130242825607  4.45827814569536 17.4278145695364  C 4.74348785871965 17.1426048565121  5.08123620309051 17  5.47152317880795 17  L 15.558940397351 17  C 15.9492273730684 17  16.2869757174393 17.1426048565121  16.5721854304636 17.4278145695364  Z M 33.7748344370861 2.79205298013245  C 33.924944812362 2.94216335540838  34 3.11479028697571  34 3.30993377483444  C 34 3.50507726269316  33.924944812362 3.67770419426049  33.7748344370861 3.82781456953642  L 26.2993377483444 11.3033112582781  L 29.5417218543046 14.5456953642384  C 29.8269315673289 14.8309050772627  29.9695364238411 15.1686534216336  29.9695364238411 15.558940397351  C 29.9695364238411 15.9492273730684  29.8269315673289 16.2869757174393  29.5417218543046 16.5721854304636  C 29.2565121412804 16.8573951434879  28.9187637969095 17  28.5284768211921 17  L 18.441059602649 17  C 18.0507726269316 17  17.7130242825607 16.8573951434879  17.4278145695364 16.5721854304636  C 17.1426048565121 16.2869757174393  17 15.9492273730684  17 15.558940397351  L 17 5.47152317880795  C 17 5.0812362030905  17.1426048565121 4.74348785871964  17.4278145695364 4.45827814569536  C 17.7130242825607 4.17306843267108  18.0507726269316 4.03046357615894  18.441059602649 4.03046357615894  C 18.8313465783665 4.03046357615894  19.1690949227373 4.17306843267108  19.4543046357616 4.45827814569536  L 22.6966887417219 7.70066225165563  L 30.1721854304636 0.225165562913908  C 30.3222958057395 0.0750551876379657  30.4949227373068 0  30.6900662251656 0  C 30.8852097130243 0  31.0578366445916 0.0750551876379657  31.2079470198676 0.225165562913908  L 33.7748344370861 2.79205298013245  Z " fill-rule="nonzero" fill="#00703c" stroke="none" transform="matrix(1 0 0 1 310 473 )" />
  </g>
</svg>