<?xml version="1.0" encoding="utf-8"?>
<svg version="1.1" xmlns:xlink="http://www.w3.org/1999/xlink" width="30px" height="30px" xmlns="http://www.w3.org/2000/svg">
  <g transform="matrix(1 0 0 1 -312 -475 )">
    <path d="M 14.55078125 17.67578125  C 14.6809895833333 17.8059895833333  14.74609375 17.9557291666667  14.74609375 18.125  C 14.74609375 18.2942708333333  14.6809895833333 18.4440104166667  14.55078125 18.57421875  L 8.06640625 25.05859375  L 10.87890625 27.87109375  C 11.1263020833333 28.1184895833333  11.25 28.4114583333333  11.25 28.75  C 11.25 29.0885416666667  11.1263020833333 29.3815104166667  10.87890625 29.62890625  C 10.6315104166667 29.8763020833333  10.3385416666667 30  10 30  L 1.25 30  C 0.911458333333333 30  0.618489583333333 29.8763020833333  0.37109375 29.62890625  C 0.123697916666667 29.3815104166667  0 29.0885416666667  0 28.75  L 0 20  C 0 19.6614583333333  0.123697916666667 19.3684895833333  0.37109375 19.12109375  C 0.618489583333333 18.8736979166667  0.911458333333333 18.75  1.25 18.75  C 1.58854166666667 18.75  1.88151041666667 18.8736979166667  2.12890625 19.12109375  L 4.94140625 21.93359375  L 11.42578125 15.44921875  C 11.5559895833333 15.3190104166667  11.7057291666667 15.25390625  11.875 15.25390625  C 12.0442708333333 15.25390625  12.1940104166667 15.3190104166667  12.32421875 15.44921875  L 14.55078125 17.67578125  Z M 29.62890625 0.371093749999999  C 29.8763020833333 0.618489583333329  30 0.911458333333329  30 1.25  L 30 10  C 30 10.3385416666667  29.8763020833333 10.6315104166667  29.62890625 10.87890625  C 29.3815104166667 11.1263020833333  29.0885416666667 11.25  28.75 11.25  C 28.4114583333333 11.25  28.1184895833333 11.1263020833333  27.87109375 10.87890625  L 25.05859375 8.06640625  L 18.57421875 14.55078125  C 18.4440104166667 14.6809895833333  18.2942708333333 14.74609375  18.125 14.74609375  C 17.9557291666667 14.74609375  17.8059895833333 14.6809895833333  17.67578125 14.55078125  L 15.44921875 12.32421875  C 15.3190104166667 12.1940104166667  15.25390625 12.0442708333333  15.25390625 11.875  C 15.25390625 11.7057291666667  15.3190104166667 11.5559895833333  15.44921875 11.42578125  L 21.93359375 4.94140625  L 19.12109375 2.12890625  C 18.8736979166667 1.88151041666667  18.75 1.58854166666667  18.75 1.25  C 18.75 0.911458333333329  18.8736979166667 0.618489583333329  19.12109375 0.371093749999999  C 19.3684895833333 0.123697916666665  19.6614583333333 0  20 0  L 28.75 0  C 29.0885416666667 0  29.3815104166667 0.123697916666665  29.62890625 0.371093749999999  Z " fill-rule="nonzero" fill="#00703c" stroke="none" transform="matrix(1 0 0 1 312 475 )" />
  </g>
</svg>