<?xml version="1.0" encoding="utf-8"?>
<svg version="1.1" xmlns:xlink="http://www.w3.org/1999/xlink" width="45px" height="45px" xmlns="http://www.w3.org/2000/svg">
  <defs>
    <filter x="377px" y="312px" width="45px" height="45px" filterUnits="userSpaceOnUse" id="filter7">
      <feOffset dx="-2" dy="2" in="SourceAlpha" result="shadowOffsetInner" />
      <feGaussianBlur stdDeviation="2.5" in="shadowOffsetInner" result="shadowGaussian" />
      <feComposite in2="shadowGaussian" operator="atop" in="SourceAlpha" result="shadowComposite" />
      <feColorMatrix type="matrix" values="0 0 0 0 0.501960784313725  0 0 0 0 0.498039215686275  0 0 0 0 0.513725490196078  0 0 0 1 0  " in="shadowComposite" />
    </filter>
    <g id="widget8">
      <path d="M 401.5 315  C 411.3 315  419 322.7  419 332.5  C 419 342.3  411.3 350  401.5 350  C 391.7 350  384 342.3  384 332.5  C 384 322.7  391.7 315  401.5 315  Z " fill-rule="nonzero" fill="#009dd9" stroke="none" />
      <path d="M 401.5 315.5  C 411.02 315.5  418.5 322.98  418.5 332.5  C 418.5 342.02  411.02 349.5  401.5 349.5  C 391.98 349.5  384.5 342.02  384.5 332.5  C 384.5 322.98  391.98 315.5  401.5 315.5  Z " stroke-width="1" stroke="#ffffff" fill="none" />
    </g>
  </defs>
  <g transform="matrix(1 0 0 1 -377 -312 )">
    <use xlink:href="#widget8" filter="url(#filter7)" />
    <use xlink:href="#widget8" />
  </g>
</svg>