<?xml version="1.0" encoding="utf-8"?>
<svg version="1.1" xmlns:xlink="http://www.w3.org/1999/xlink" width="42px" height="35px" xmlns="http://www.w3.org/2000/svg">
  <g transform="matrix(1 0 0 1 -427 -397 )">
    <path d="M 2.21052631578947 4.375  C 2.21052631578947 6.7880859375  4.19309210526316 8.75  6.63157894736842 8.75  C 9.07006578947369 8.75  11.0526315789474 6.7880859375  11.0526315789474 4.375  C 11.0526315789474 1.9619140625  9.07006578947369 0  6.63157894736842 0  C 4.19309210526316 0  2.21052631578947 1.9619140625  2.21052631578947 4.375  Z M 28.7368421052632 4.375  C 28.7368421052632 6.7880859375  30.7194078947368 8.75  33.1578947368421 8.75  C 35.5963815789474 8.75  37.5789473684211 6.7880859375  37.5789473684211 4.375  C 37.5789473684211 1.9619140625  35.5963815789474 0  33.1578947368421 0  C 30.7194078947368 0  28.7368421052632 1.9619140625  28.7368421052632 4.375  Z M 40.2592105263158 26.25  C 41.3782894736842 26.25  42.2072368421053 25.265625  41.9516447368421 24.2333984375  L 38.8016447368421 11.5322265625  C 38.5736842105263 10.609375  37.7309210526316 9.9599609375  36.7430921052632 9.8779296875  C 35.7069078947368 10.541015625  34.477302631579 10.9375  33.1509868421053 10.9375  C 31.8246710526316 10.9375  30.5950657894737 10.541015625  29.5588815789474 9.8779296875  C 28.5710526315789 9.9599609375  27.7282894736842 10.609375  27.5003289473684 11.5322265625  L 24.3503289473684 24.2333984375  C 24.1085526315789 25.265625  24.9375 26.25  26.0565789473684 26.25  L 29.8421052631579 26.25  L 29.8421052631579 33.359375  C 29.8421052631579 34.2685546875  30.58125 35  31.5 35  L 34.8157894736842 35  C 35.7345394736842 35  36.4736842105263 34.2685546875  36.4736842105263 33.359375  L 36.4736842105263 26.25  L 40.2592105263158 26.25  Z M 22 1.09375  C 22.1052631578947 0.4921875  21.6078947368421 0  21 0  L 18.7894736842105 0  C 18.1815789473684 0  17.6842105263158 0.4921875  18 1.09375  L 18 33.90625  C 17.6842105263158 34.5078125  18.1815789473684 35  18.7894736842105 35  L 21 35  C 21.6078947368421 35  22.1052631578947 34.5078125  22 33.90625  L 22 1.09375  Z M 13.2631578947368 13.125  C 13.2631578947368 11.4091796875  11.9299342105263 10.0146484375  10.2305921052632 9.87109375  C 9.19440789473684 10.541015625  7.9578947368421 10.9375  6.63157894736842 10.9375  C 5.30526315789474 10.9375  4.06875 10.541015625  3.03256578947368 9.87109375  C 1.33322368421053 10.0146484375  0 11.4091796875  0 13.125  L 0 22.421875  C 0 23.3310546875  0.739144736842106 24.0625  1.65789473684211 24.0625  L 2.21052631578947 24.0625  L 2.21052631578947 33.359375  C 2.21052631578947 34.2685546875  2.94967105263158 35  3.86842105263158 35  L 9.39473684210526 35  C 10.3134868421053 35  11.0526315789474 34.2685546875  11.0526315789474 33.359375  L 11.0526315789474 24.0625  L 11.6052631578947 24.0625  C 12.5240131578947 24.0625  13.2631578947368 23.3310546875  13.2631578947368 22.421875  L 13.2631578947368 13.125  Z " fill-rule="nonzero" fill="#8dc63f" stroke="none" transform="matrix(1 0 0 1 427 397 )" />
  </g>
</svg>