<?xml version="1.0" encoding="utf-8"?>
<svg version="1.1" xmlns:xlink="http://www.w3.org/1999/xlink" width="32px" height="35px" xmlns="http://www.w3.org/2000/svg">
  <g transform="matrix(1 0 0 1 -255 -315 )">
    <path d="M 11.4318181818182 28.9615885416667  C 11.5681818181818 28.8248697916667  11.6363636363636 28.6501736111111  12 28.4375  L 12 12.3958333333333  C 11.6363636363636 12.1831597222222  11.5681818181818 12.0084635416667  11.4318181818182 11.8717447916667  C 11.2954545454545 11.7350260416667  11.1212121212121 11.6666666666667  10.9090909090909 11.6666666666667  L 9.45454545454546 11.6666666666667  C 9.24242424242424 11.6666666666667  9.06818181818182 11.7350260416667  8.93181818181818 11.8717447916667  C 8.79545454545455 12.0084635416667  8.72727272727273 12.1831597222222  9 12.3958333333333  L 9 28.4375  C 8.72727272727273 28.6501736111111  8.79545454545455 28.8248697916667  8.93181818181818 28.9615885416667  C 9.06818181818182 29.0983072916667  9.24242424242424 29.1666666666667  9.45454545454546 29.1666666666667  L 10.9090909090909 29.1666666666667  C 11.1212121212121 29.1666666666667  11.2954545454545 29.0983072916667  11.4318181818182 28.9615885416667  Z M 17.25 28.9615885416667  C 17.3863636363636 28.8248697916667  17.4545454545455 28.6501736111111  17 28.4375  L 17 12.3958333333333  C 17.4545454545455 12.1831597222222  17.3863636363636 12.0084635416667  17.25 11.8717447916667  C 17.1136363636364 11.7350260416667  16.9393939393939 11.6666666666667  16.7272727272727 11.6666666666667  L 15.2727272727273 11.6666666666667  C 15.0606060606061 11.6666666666667  14.8863636363636 11.7350260416667  14.75 11.8717447916667  C 14.6136363636364 12.0084635416667  14.5454545454545 12.1831597222222  15 12.3958333333333  L 15 28.4375  C 14.5454545454545 28.6501736111111  14.6136363636364 28.8248697916667  14.75 28.9615885416667  C 14.8863636363636 29.0983072916667  15.0606060606061 29.1666666666667  15.2727272727273 29.1666666666667  L 16.7272727272727 29.1666666666667  C 16.9393939393939 29.1666666666667  17.1136363636364 29.0983072916667  17.25 28.9615885416667  Z M 23.0681818181818 28.9615885416667  C 23.2045454545455 28.8248697916667  23.2727272727273 28.6501736111111  23 28.4375  L 23 12.3958333333333  C 23.2727272727273 12.1831597222222  23.2045454545455 12.0084635416667  23.0681818181818 11.8717447916667  C 22.9318181818182 11.7350260416667  22.7575757575758 11.6666666666667  22.5454545454545 11.6666666666667  L 21.0909090909091 11.6666666666667  C 20.8787878787879 11.6666666666667  20.7045454545455 11.7350260416667  20.5681818181818 11.8717447916667  C 20.4318181818182 12.0084635416667  20.3636363636364 12.1831597222222  20 12.3958333333333  L 20 28.4375  C 20.3636363636364 28.6501736111111  20.4318181818182 28.8248697916667  20.5681818181818 28.9615885416667  C 20.7045454545455 29.0983072916667  20.8787878787879 29.1666666666667  21.0909090909091 29.1666666666667  L 22.5454545454545 29.1666666666667  C 22.7575757575758 29.1666666666667  22.9318181818182 29.0983072916667  23.0681818181818 28.9615885416667  Z M 12.0227272727273 3.16731770833333  L 10.9090909090909 6  L 21.0909090909091 6  L 20 3.16731770833333  C 19.8939393939394 3.03059895833333  19.7651515151515 2.94704861111111  19.6136363636364 2.91666666666667  L 12.4090909090909 2.91666666666667  C 12.2575757575758 2.94704861111111  12.1287878787879 3.03059895833333  12.0227272727273 3.16731770833333  Z M 31.7954545454545 6.03841145833333  C 31.9318181818182 6.17513020833333  32 6.34982638888889  32 6.5625  L 32 8.02083333333333  C 32 8.23350694444444  31.9318181818182 8.408203125  31.7954545454545 8.544921875  C 31.6590909090909 8.681640625  31.4848484848485 8.75  31.2727272727273 8.75  L 29 8.75  L 29 30.3515625  C 29.0909090909091 31.6124131944444  28.7348484848485 32.7023654513889  28.0227272727273 33.6214192708333  C 27.3106060606061 34.5404730902778  26.4545454545455 35  25.4545454545455 35  L 6.54545454545455 35  C 5.54545454545455 35  4.68939393939394 34.5556640625  3.97727272727273 33.6669921875  C 3.26515151515152 32.7783203125  2.90909090909091 31.7035590277778  3 30.4427083333333  L 3 8.75  L 0.727272727272727 8.75  C 0.515151515151515 8.75  0.340909090909091 8.681640625  0.204545454545455 8.544921875  C 0.0681818181818182 8.408203125  0 8.23350694444444  0 8.02083333333333  L 0 6.5625  C 0 6.34982638888889  0.0681818181818182 6.17513020833333  0.204545454545455 6.03841145833333  C 0.340909090909091 5.90169270833333  0.515151515151515 5.83333333333333  0.727272727272727 5.83333333333333  L 7.75 5.83333333333333  L 9.34090909090909 2.02799479166667  C 9.56818181818182 1.46592881944444  9.97727272727273 0.987413194444441  10.5681818181818 0.592447916666668  C 11.1590909090909 0.197482638888887  11.7575757575758 0  12.3636363636364 0  L 19.6363636363636 0  C 20.2424242424242 0  20.8409090909091 0.197482638888887  21.4318181818182 0.592447916666668  C 22.0227272727273 0.987413194444441  22.4318181818182 1.46592881944444  22.6590909090909 2.02799479166667  L 24.25 5.83333333333333  L 31.2727272727273 5.83333333333333  C 31.4848484848485 5.83333333333333  31.6590909090909 5.90169270833333  31.7954545454545 6.03841145833333  Z " fill-rule="nonzero" fill="#8dc63f" stroke="none" transform="matrix(1 0 0 1 255 315 )" />
  </g>
</svg>