<?xml version="1.0" encoding="utf-8"?>
<svg version="1.1" xmlns:xlink="http://www.w3.org/1999/xlink" width="13px" height="18px" xmlns="http://www.w3.org/2000/svg">
  <g transform="matrix(1 0 0 1 -309 -17 )">
    <path d="M 12.7855902777778 7.12860576923077  C 12.9285300925926 7.265625  13 7.42788461538461  13 7.61538461538462  L 13 9  C 13 10.59375  12.4451678240741 11.9801682692308  11.3355034722222 13.1592548076923  C 10.2258391203704 14.3383413461538  8.85474537037037 15.0144230769231  7.22222222222222 15.1875  L 7.22222222222222 16.6153846153846  L 10.1111111111111 16.6153846153846  C 10.306712962963 16.6153846153846  10.4759837962963 16.6838942307692  10.6189236111111 16.8209134615385  C 10.7618634259259 16.9579326923077  10.8333333333333 17.1201923076923  10.8333333333333 17.3076923076923  C 10.8333333333333 17.4951923076923  10.7618634259259 17.6574519230769  10.6189236111111 17.7944711538462  C 10.4759837962963 17.9314903846154  10.306712962963 18  10.1111111111111 18  L 2.88888888888889 18  C 2.69328703703704 18  2.5240162037037 17.9314903846154  2.38107638888889 17.7944711538462  C 2.23813657407407 17.6574519230769  2.16666666666667 17.4951923076923  2.16666666666667 17.3076923076923  C 2.16666666666667 17.1201923076923  2.23813657407407 16.9579326923077  2.38107638888889 16.8209134615385  C 2.5240162037037 16.6838942307692  2.69328703703704 16.6153846153846  2.88888888888889 16.6153846153846  L 5.77777777777778 16.6153846153846  L 5.77777777777778 15.1875  C 4.14525462962963 15.0144230769231  2.77416087962963 14.3383413461538  1.66449652777778 13.1592548076923  C 0.554832175925926 11.9801682692308  0 10.59375  0 9  L 0 7.61538461538462  C 0 7.42788461538461  0.0714699074074074 7.265625  0.214409722222222 7.12860576923077  C 0.357349537037037 6.99158653846154  0.52662037037037 6.92307692307692  0.722222222222222 6.92307692307692  C 0.917824074074074 6.92307692307692  1.08709490740741 6.99158653846154  1.23003472222222 7.12860576923077  C 1.37297453703704 7.265625  1.44444444444444 7.42788461538461  1.44444444444444 7.61538461538462  L 1.44444444444444 9  C 1.44444444444444 10.3341346153846  1.93909143518519 11.4753605769231  2.92838541666667 12.4236778846154  C 3.91767939814815 13.3719951923077  5.10821759259259 13.8461538461538  6.5 13.8461538461538  C 7.89178240740741 13.8461538461538  9.08232060185185 13.3719951923077  10.0716145833333 12.4236778846154  C 11.0609085648148 11.4753605769231  11.5555555555556 10.3341346153846  11.5555555555556 9  L 11.5555555555556 7.61538461538462  C 11.5555555555556 7.42788461538461  11.627025462963 7.265625  11.7699652777778 7.12860576923077  C 11.9129050925926 6.99158653846154  12.0821759259259 6.92307692307692  12.2777777777778 6.92307692307692  C 12.4733796296296 6.92307692307692  12.642650462963 6.99158653846154  12.7855902777778 7.12860576923077  Z M 9.05034722222222 1.01682692307692  C 9.75752314814815 1.69471153846154  10.1111111111111 2.50961538461538  10.1111111111111 3.46153846153846  L 10.1111111111111 9  C 10.1111111111111 9.95192307692308  9.75752314814815 10.7668269230769  9.05034722222222 11.4447115384615  C 8.3431712962963 12.1225961538462  7.49305555555556 12.4615384615385  6.5 12.4615384615385  C 5.50694444444444 12.4615384615385  4.65682870370371 12.1225961538462  3.94965277777778 11.4447115384615  C 3.24247685185185 10.7668269230769  2.88888888888889 9.95192307692308  2.88888888888889 9  L 2.88888888888889 3.46153846153846  C 2.88888888888889 2.50961538461538  3.24247685185185 1.69471153846154  3.94965277777778 1.01682692307692  C 4.65682870370371 0.338942307692309  5.50694444444444 0  6.5 0  C 7.49305555555556 0  8.3431712962963 0.338942307692309  9.05034722222222 1.01682692307692  Z " fill-rule="nonzero" fill="#00703c" stroke="none" transform="matrix(1 0 0 1 309 17 )" />
  </g>
</svg>