<?xml version="1.0" encoding="utf-8"?>
<svg version="1.1" xmlns:xlink="http://www.w3.org/1999/xlink" width="20px" height="20px" viewBox="259 241  20 20" xmlns="http://www.w3.org/2000/svg">
  <path d="M 269 241  C 274.6 241  279 245.4  279 251  C 279 256.6  274.6 261  269 261  C 263.4 261  259 256.6  259 251  C 259 245.4  263.4 241  269 241  Z " fill-rule="nonzero" fill="#f0f0f0" stroke="none" />
  <path d="M 269 241.5  C 274.32 241.5  278.5 245.68  278.5 251  C 278.5 256.32  274.32 260.5  269 260.5  C 263.68 260.5  259.5 256.32  259.5 251  C 259.5 245.68  263.68 241.5  269 241.5  Z " stroke-width="1" stroke="#8dc63f" fill="none" />
  <path d="M 269 256  C 266.2 256  264 253.8  264 251  C 264 248.2  266.2 246  269 246  C 271.8 246  274 248.2  274 251  C 274 253.8  271.8 256  269 256  " fill-rule="nonzero" fill="#8dc63f" stroke="none" />
</svg>