<?xml version="1.0" encoding="utf-8"?>
<svg version="1.1" xmlns:xlink="http://www.w3.org/1999/xlink" width="95px" height="144px" xmlns="http://www.w3.org/2000/svg">
  <g transform="matrix(1 0 0 1 -133 -254 )">
    <path d="M 64.2919921875 64.96875  C 68.9306640625 60.28125  71.25 54.625  71.25 48  C 71.25 41.375  68.9306640625 35.71875  64.2919921875 31.03125  C 59.6533203125 26.34375  54.0559895833333 24  47.5 24  C 40.9440104166667 24  35.3466796875 26.34375  30.7080078125 31.03125  C 26.0693359375 35.71875  23.75 41.375  23.75 48  C 23.75 54.625  26.0693359375 60.28125  30.7080078125 64.96875  C 35.3466796875 69.65625  40.9440104166667 72  47.5 72  C 54.0559895833333 72  59.6533203125 69.65625  64.2919921875 64.96875  Z M 81.083984375 14.0625  C 90.361328125 23.4375  95 34.75  95 48  C 95 54.8125  93.9794921875 60.40625  91.9384765625 64.78125  L 58.1689453125 137.34375  C 57.1793619791667 139.40625  55.71044921875 141.03125  53.76220703125 142.21875  C 51.81396484375 143.40625  49.7265625 144  47.5 144  C 45.2734375 144  43.18603515625 143.40625  41.23779296875 142.21875  C 39.28955078125 141.03125  37.8515625 139.40625  36.923828125 137.34375  L 3.0615234375 64.78125  C 1.0205078125 60.40625  0 54.8125  0 48  C 0 34.75  4.638671875 23.4375  13.916015625 14.0625  C 23.193359375 4.68750000000001  34.3880208333333 0  47.5 0  C 60.6119791666667 0  71.806640625 4.68750000000001  81.083984375 14.0625  Z " fill-rule="nonzero" fill="#00703c" stroke="none" transform="matrix(1 0 0 1 133 254 )" />
  </g>
</svg>