<?xml version="1.0" encoding="utf-8"?>
<svg version="1.1" xmlns:xlink="http://www.w3.org/1999/xlink" width="38px" height="40px" xmlns="http://www.w3.org/2000/svg">
  <g transform="matrix(1 0 0 1 -16 -11 )">
    <path d="M 37.1610054347826 16.0333761232349  C 37.7203351449275 16.6752246469833  38 17.4497218656397  38 18.3568677792041  L 38 21.6431322207959  C 38 22.5502781343603  37.7203351449275 23.3247753530167  37.1610054347826 23.9666238767651  C 36.6016757246377 24.6084724005135  35.8745471014493 24.9293966623877  34.9796195652174 25  L 16.8057065217391 25  L 24.3695652173913 32.4775353016688  C 25.0235507246377 33.0937098844673  25.3505434782609 33.8639281129653  25.3505434782609 34.788189987163  C 25.3505434782609 35.7124518613607  25.0235507246377 36.4826700898588  24.3695652173913 37.0988446726573  L 22.4334239130435 39.0500641848524  C 21.7966485507246 39.6833547282841  21.0221920289855 40  20.1100543478261 40  C 19.2151268115942 40  18.4320652173913 39.6833547282841  17.7608695652174 39.0500641848524  L 0.955163043478261 22.3106546854942  C 0.318387681159421 21.6773641420625  0 20.9071459135644  0 20  C 0 19.1099700470689  0.318387681159421 18.3311938382542  0.955163043478261 17.6636713735558  L 17.7608695652174 0.975609756097562  C 18.4148550724638 0.325203252032518  19.1979166666667 0  20.1100543478261 0  C 21.004981884058 0  21.7794384057971 0.325203252032518  22.4334239130435 0.975609756097562  L 24.3695652173913 2.87548138639281  C 25.0235507246377 3.52588789045785  25.3505434782609 4.30466409927257  25.3505434782609 5.21181001283697  C 25.3505434782609 6.11895592640137  25.0235507246377 6.89773213521609  24.3695652173913 7.54813863928113  L 16.8057065217391 15  L 34.9796195652174 15  C 35.8745471014493 15.0706033376123  36.6016757246377 15.3915275994865  37.1610054347826 16.0333761232349  Z " fill-rule="nonzero" fill="#807f83" stroke="none" transform="matrix(1 0 0 1 16 11 )" />
  </g>
</svg>