<?xml version="1.0" encoding="utf-8"?>
<svg version="1.1" xmlns:xlink="http://www.w3.org/1999/xlink" width="21px" height="12px" xmlns="http://www.w3.org/2000/svg">
  <g transform="matrix(1 0 0 1 -327 -163 )">
    <path d="M 20.7895791583166 9.81443298969072  C 20.9298597194389 9.95189003436426  21 10.1099656357388  21 10.2886597938144  C 21 10.46735395189  20.9298597194389 10.6254295532646  20.7895791583166 10.7628865979381  L 19.7374749498998 11.7938144329897  C 19.5971943887776 11.9312714776632  19.435871743487 12  19.2535070140281 12  C 19.0711422845691 12  18.9098196392786 11.9312714776632  18.7695390781563 11.7938144329897  L 10.5 3.69072164948454  L 2.23046092184369 11.7938144329897  C 2.09018036072144 11.9312714776632  1.92885771543086 12  1.74649298597194 12  C 1.56412825651303 12  1.40280561122245 11.9312714776632  1.2625250501002 11.7938144329897  L 0.210420841683367 10.7628865979381  C 0.0701402805611225 10.6254295532646  0 10.46735395189  0 10.2886597938144  C 0 10.1099656357388  0.0701402805611225 9.95189003436426  0.210420841683367 9.81443298969072  L 10.0160320641283 0.20618556701031  C 10.1563126252505 0.0687285223367682  10.3176352705411 0  10.5 0  C 10.6823647294589 0  10.8436873747495 0.0687285223367682  10.9839679358717 0.20618556701031  L 20.7895791583166 9.81443298969072  Z " fill-rule="nonzero" fill="#333333" stroke="none" transform="matrix(1 0 0 1 327 163 )" />
  </g>
</svg>